<svg id="Layer_1" data-name="Layer 1" xmlns="http://www.w3.org/2000/svg" viewBox="0 0 689.8 794.31"><title>icon2</title><path d="M624.94,559.15l61.37-234.58L676.44,322l-62,237.16H448L351.61,327l-9.42,3.91,94.73,228.24H209.71v557.14H899.5V559.15ZM303.35,950a33.68,33.68,0,0,1-47.13,30.87l35.61-56.22A33.61,33.61,0,0,1,303.35,950Zm-33.68-33.67a33.46,33.46,0,0,1,16.18,4.14l-36,56.77a33.67,33.67,0,0,1,19.78-60.91Zm0,161.22a40.81,40.81,0,0,1-32.23-65.84L294.69,1069A40.62,40.62,0,0,1,269.67,1077.57Zm32.24-15.79-57.26-57.26a40.81,40.81,0,0,1,57.26,57.26Zm252.7-47.56a176.5,176.5,0,1,1,176.5-176.5A176.51,176.51,0,0,1,554.61,1014.22Z" transform="translate(-209.71 -321.99)"/></svg>