<svg id="Layer_1" data-name="Layer 1" xmlns="http://www.w3.org/2000/svg" viewBox="0 0 823.99 816.62"><title>icon1</title><path d="M436.69,891.35c3.3-8.72,6.5-17.3,9.53-25.83s5.89-17,8.6-25.39c.67-2.11,1.32-4.22,2-6.29l1.9-6.3c.68-2.07,1.24-4.18,1.85-6.27s1.27-4.14,1.79-6.25,1.12-4.17,1.72-6.24,1.05-4.17,1.59-6.24c1.18-4.12,2-8.32,3.05-12.43,1.78-8.31,3.65-16.53,4.95-24.81,1.55-8.24,2.53-16.51,3.58-24.74.22-2.07.37-4.13.57-6.2.08-1,.2-2.06.31-3.09l.16-1.54.09-1.55.38-6.2.2-3.1.09-3.1A325.73,325.73,0,0,0,477,666.09a355.52,355.52,0,0,0-9.67-49.81,432.6,432.6,0,0,0-17.18-49.74c-2.06-4.92-4.23-9.85-6.46-14.8Q429.78,541.67,416,531.48q-44.14-32.78-87.19-67.13,14,16.45,26.35,34.36c1.05,1.46,2,3,3,4.48l2.95,4.52,2.94,4.54c1,1.53,2,3,2.88,4.58,1.85,3.11,3.71,6.21,5.53,9.34l2.73,4.68,2.58,4.79c1.73,3.19,3.41,6.4,5.11,9.61s3.2,6.53,4.78,9.81c3.21,6.53,6,13.27,8.86,20a362,362,0,0,1,14.19,41.69l1.46,5.34.72,2.67.63,2.7L416,638.3c.43,1.8.73,3.64,1.06,5.47l1,5.49.95,5.49c.33,1.83.52,3.69.77,5.54,4.06,29.52,4,60.1-1.72,90.13L416.86,756c-.41,1.87-.71,3.74-1.24,5.6-1,3.71-1.94,7.42-3,11.1a222,222,0,0,1-7.72,21.74l-2.19,5.34c-.78,1.76-1.66,3.49-2.5,5.22l-2.55,5.19-1.28,2.59L395,815.33l-2.89,5c-1,1.66-1.9,3.35-3,5-2.15,3.22-4.28,6.43-6.47,9.6a188,188,0,0,1-31,33.69,207.54,207.54,0,0,1-36.81,25.06A230.52,230.52,0,0,1,254,915.54q13.59-1.39,27.12-2.61c8-.74,16-1.37,24-2s15.94-1.27,23.89-1.81q47.72-3.44,95-5.47l8.12-.34c.7-1.78,1.38-3.58,2.05-5.37Z" transform="translate(-230.02 -336.76)"/><path d="M272.81,401.73c4.36,2.33,8.69,4.71,13,7.1q26,14.28,51.4,29.33,50.93,30,100.43,62t98,65.58q12.11,8.41,23.59,17.71T581.54,603c7.22,6.84,14.18,14,20.83,21.7,3.31,3.84,6.56,7.78,9.68,11.91a145.62,145.62,0,0,1,8.69,12.59A251.88,251.88,0,0,1,649.93,620a256.13,256.13,0,0,1,34.41-24.8c6.06-3.75,12.37-7.11,18.76-10.36s13-6.15,19.69-8.75,13.56-5,20.49-7.13,14-3.86,21.19-5.28,14.41-2.52,21.71-3.4l5.5-.49,2.75-.24,2.76-.15,5.53-.3,5.55-.1a220.55,220.55,0,0,1,44.43,4,215.84,215.84,0,0,1,43.1,13.14c7,2.92,13.72,6.31,20.37,9.89s13,7.67,19.23,11.92a245.72,245.72,0,0,1,43.43,38.59q-.68-15.53-1.08-30.91c-.28-10.68-.49-21.34-.45-31.93.07-21.18,1-42.17,3-63.19A605.77,605.77,0,0,1,989.62,447c2.18-10.69,4.68-21.45,7.65-32.32.72-2.72,1.56-5.45,2.34-8.18s1.64-5.48,2.5-8.24c1.66-5.25,3.44-10.53,5.54-15.86-7.81,2.72-15.62,5-23.44,7.16-4,1.08-8.07,2.2-12.11,3.24s-8.08,2-12.12,3c-16.16,3.84-32.31,7.15-48.47,10.09s-32.31,5.48-48.47,7.7-32.31,4.12-48.47,5.72q-48.47,4.8-96.94,6.33c-32.31,1.11-64.62,1.05-96.94.55-64.62-1.07-129.25-4.52-193.87-11.22-16.16-1.68-32.32-3.53-48.47-5.66s-32.32-4.44-48.47-7.06-32.32-5.52-48.47-8.79c-8.08-1.63-16.16-3.35-24.24-5.23-6.5-1.51-13-3.08-19.51-4.81,7.43,3.66,14.78,7.45,22.07,11.31C264.11,397,268.46,399.38,272.81,401.73Z" transform="translate(-230.02 -336.76)"/><path d="M989.41,908.14c.41-.45.79-.93,1.19-1.39a34.1,34.1,0,0,0,2.34-2.85l1.11-1.49,1.05-1.59c.73-1,1.35-2.19,2-3.29a78.67,78.67,0,0,0,6-13.16c-2-14.37-3.86-28.39-5.62-42.21-3.1-24.35-5.85-48-8.27-71q-2.41-22.93-4.37-45.2a279,279,0,0,0-22.36-39.72c-14.19-21-31.34-39.77-51.2-54.89a195.77,195.77,0,0,0-66.7-33.12,204.11,204.11,0,0,0-37.39-6.61,221,221,0,0,0-38.58.1c-6.47.49-12.92,1.43-19.39,2.43l-4.83.88-2.42.44-2.41.52-4.82,1c-1.61.36-3.2.78-4.81,1.17-3.21.74-6.38,1.67-9.58,2.54s-6.33,1.93-9.51,2.9l-4.72,1.6c-1.59.53-3.16,1.07-4.71,1.67l-4.7,1.74c-1.58.57-3.11,1.24-4.67,1.85-24.89,10-48.55,23.71-71,39.94h0l-.07.15-.56-.1a141.9,141.9,0,0,1-15.3-3.79c-5-1.46-9.8-3.12-14.56-4.87-9.51-3.52-18.7-7.5-27.65-11.84s-17.65-9-26.13-14S520,605.64,511.89,600.08L504.65,595q1.37,2.38,2.73,4.8a240.87,240.87,0,0,1,21.73,56.4,247.6,247.6,0,0,1,7.23,60.64v3.84c0,1.28-.09,2.55-.15,3.83l-.38,7.65c-.29,5.09-.89,10.16-1.44,15.23a252.71,252.71,0,0,1-5.79,29.91,249.62,249.62,0,0,1-9.32,28.78,252.48,252.48,0,0,1-12.65,27.18,245.32,245.32,0,0,1-34.1,48.29A217.5,217.5,0,0,1,451.37,902l-.72.58q33.93-1.24,67.81-1.93c31.45-.66,62.81-1.27,94.22-1.55s62.87-.3,94.57.14,63.66,1.3,95.9,2.39l24.23.85,24.33.92c16.22.59,32.54,1.29,49.36,2.49s34,2.68,51.67,4.63c8.86,1,17.89,2.09,27,3.3l2.87.39a52.7,52.7,0,0,0,5.44-4.73Z" transform="translate(-230.02 -336.76)"/><path d="M976.13,918.46l.11-.07H796.74c23.6,3.73,47,7.35,70.11,9.82,6.65.74,13.27,1.31,19.87,1.81s13.14.79,19.62.91,12.9.06,19.2-.28q6.63-.52,13.15-1.14c1.79-.22,3.57-.45,5.33-.72C955.92,926.87,967.13,923.65,976.13,918.46Z" transform="translate(-230.02 -336.76)"/><path d="M680.41,935a166,166,0,0,0-19.08.12,101,101,0,0,0-18,2.73q33.24.21,66.32-.05-4.84-.66-9.68-1.21C693.41,935.78,686.88,935.27,680.41,935Z" transform="translate(-230.02 -336.76)"/><path d="M614,923.92a69.06,69.06,0,0,1,8.79-5.53H427.79l-.6.33-.37-.33H232.94c82.43-27.2,117.21-72.7,130.61-93.88C431,717.92,391.94,539.54,249,397.07q-8.23-7.38-16.3-15l.29-.41.28-.41.84.41h774.39V676.43A308.26,308.26,0,0,1,1034.1,729c1.66-21.95,3-44.25,3.91-66.77q.72-17.37,1.14-34.9c.27-11.68.49-23.39.44-35.16-.07-23.55-1-47.29-3-71s-5-47.37-9.35-70.74c-2.18-11.68-4.68-23.28-7.65-34.77-.71-2.87-1.55-5.74-2.33-8.59s-1.64-5.7-2.5-8.54c-1.75-5.68-3.6-11.32-5.84-16.92l-.24-.6-.26.1h0c-8.08-2.85-16.16-5.15-24.24-7.43-4-1.07-8.07-2.19-12.11-3.23s-8.08-2-12.12-3c-16.16-3.84-32.31-7.15-48.47-10.1s-32.31-5.47-48.47-7.69-32.31-4.12-48.47-5.73q-48.47-4.78-96.94-6.32c-32.31-1.12-64.62-1.05-96.94-.56-64.62,1.08-129.25,4.53-193.87,11.23-16.16,1.67-32.32,3.52-48.47,5.66S346,358.42,329.88,361s-32.32,5.52-48.47,8.79c-8.08,1.63-16.16,3.35-24.24,5.24s-16.15,3.81-24.23,6.08l-1.29.37.95.5h0c4,5.86,8.09,11.46,12.13,17.09l11.88,17,5.78,8.52c1.93,2.83,3.91,5.61,5.74,8.5s3.72,5.72,5.59,8.56l2.81,4.25,2.69,4.32A767.93,767.93,0,0,1,318.7,520.2c.78,1.46,1.48,3,2.17,4.46l2.1,4.49c1.38,3,2.88,5.93,4.21,8.94s2.61,6,3.95,9l2,4.5,1.83,4.56c1.21,3,2.48,6,3.71,9.08s2.27,6.12,3.43,9.16c2.42,6.05,4.32,12.26,6.47,18.37l.79,2.3.7,2.32,1.4,4.64,1.42,4.63.72,2.31.62,2.33c1.66,6.22,3.43,12.4,4.79,18.65,1.57,6.22,2.69,12.49,4,18.73.35,1.56.56,3.13.82,4.7l.75,4.7.77,4.69c.26,1.57.38,3.14.59,4.7,3.28,25.06,3.84,50.19.75,74.59l-.6,4.57c-.23,1.52-.34,3.07-.67,4.56-.57,3-1.15,6-1.67,9a22.78,22.78,0,0,1-.48,2.24l-.54,2.23-1.06,4.45c-.63,3-1.58,5.88-2.42,8.81l-1.27,4.4c-.48,1.45-1,2.85-1.52,4.3L354.91,791l-.75,2.16-.9,2.09c-1.21,2.78-2.3,5.64-3.53,8.43s-2.7,5.44-4,8.22a187.36,187.36,0,0,1-20.16,31,239.81,239.81,0,0,1-26.46,28,332,332,0,0,1-31.37,24.74c-2.81,1.9-5.61,3.83-8.43,5.79L250.61,907c-1.46.94-2.9,1.9-4.37,2.82s-3,1.74-4.48,2.64c-3,1.79-6,3.6-9,5.5h0l-2.76.62,2.92.36c16.16,2,32.41,3.51,48.71,5,8.16.75,16.32,1.38,24.5,2s16.38,1.26,24.58,1.81q49.23,3.42,98.91,5.47t99.41,3q35.84.71,71.76,1.23A61,61,0,0,1,614,923.92Z" transform="translate(-230.02 -336.76)"/><path d="M1010.28,829c-.24-7.4-.87-14.83-1.83-22.25v55.75A177.48,177.48,0,0,0,1010.28,829Z" transform="translate(-230.02 -336.76)"/><path d="M1054,827.85a278.84,278.84,0,0,0-4.68-44.49,312.05,312.05,0,0,0-11.12-42.93q-1.92-5.73-4.05-11.39c-1.76,23.2-3.9,46-6.4,68.25-2.42,21.64-5.18,42.77-8.27,63.14s-6.43,40.11-10.63,58.31c-6.38,1.7-13.2,3-20.17,4.27s-14.11,2.32-21.41,3.3c-9.3,1.24-18.83,2.29-28.53,3.2q-6.47.78-13.15,1.14l-3.59.29c-15.49,1.2-31.48,1.89-47.57,2.48l-24.15.92-24.24.85c-32.38,1.09-65,1.95-98,2.39-6.11.09-12.23.14-18.35.19,23.18,3.13,46.62,7.92,70.23,12.75,27,5.41,54.17,11.14,82.19,15.24,14,2,28.25,3.68,42.81,4.43a253.3,253.3,0,0,0,44.79-1.27,164.56,164.56,0,0,0,23.22-4.71A113.39,113.39,0,0,0,996.09,955a98.09,98.09,0,0,0,21.24-15.31l2.41-2.3c.77-.8,1.5-1.64,2.25-2.46,1.49-1.65,3-3.29,4.32-5,.67-.86,1.37-1.73,2-2.61l1.87-2.67c1.29-1.77,2.37-3.61,3.5-5.43a121.85,121.85,0,0,0,10.5-22.57,161.11,161.11,0,0,0,6.19-23A216.27,216.27,0,0,0,1054,827.85Z" transform="translate(-230.02 -336.76)"/><path d="M600.81,937.41a57,57,0,0,0-3.63,5.82,64.11,64.11,0,0,0-7.37,23.65,92.93,92.93,0,0,0,.42,23.26,144.42,144.42,0,0,0,5,21.6c8.82,27.74,23,52.14,38.16,75.45a704.79,704.79,0,0,0,50.21,66.19l.8-.6q-11.13-17.44-21.74-35.13c-7-11.83-13.78-23.75-20.09-35.87s-12.21-24.39-17.33-36.87A228.13,228.13,0,0,1,612.93,1007a130,130,0,0,1-2.79-18.94,71.9,71.9,0,0,1,1.08-17.94c2.24-11.3,8.11-20.43,16.94-26a53,53,0,0,1,15.19-6.28c-4.88,0-9.76-.05-14.65-.1Q614.76,937.62,600.81,937.41Z" transform="translate(-230.02 -336.76)"/><path d="M978.83,636.49l.06,1.28c1.28,28.86,3.3,58.13,5.94,88.15a293.4,293.4,0,0,1,11.4,28.59,276.67,276.67,0,0,1,12.22,52.28V676.43q-4.73-7.71-9.94-15.16A271.05,271.05,0,0,0,978.83,636.49Z" transform="translate(-230.02 -336.76)"/><path d="M265.77,411.9q5.58,4.89,11.23,9.66,22.51,19.28,45.55,37.77l6.25,5q-13.76-16.23-29-31l-3.8-3.72-3.94-3.58q-3.93-3.57-7.89-7.1c-2.59-2.39-5.37-4.61-8.09-6.86l-8.2-6.69c-1.36-1.12-2.78-2.17-4.19-3.23l-4.25-3.15c-2.85-2.09-5.66-4.19-8.52-6.24q-7.41-5.06-15-9.84l1.68.45-3.6-1.78h-1.12q8.22,7.64,16,15.42l5.67,5C258.31,405.41,262,408.66,265.77,411.9Z" transform="translate(-230.02 -336.76)"/><path d="M1003.09,884.37c1.54,11,3.19,22.17,5,33.66-8.77-1.52-17.17-2.74-25.44-3.87a60.35,60.35,0,0,1-6.42,4.23h32.21V862.54c-.16,1-.32,2.07-.5,3.09A119.07,119.07,0,0,1,1003.09,884.37Z" transform="translate(-230.02 -336.76)"/><path d="M744.67,910.74q-10.42-1.37-21-2.43t-21.29-1.66c-7.14-.4-14.38-.53-21.68-.42a192.73,192.73,0,0,0-22.18,1.53,120.22,120.22,0,0,0-22.64,5,85,85,0,0,0-13.17,5.62h174L786,916.69C772.31,914.58,758.57,912.53,744.67,910.74Z" transform="translate(-230.02 -336.76)"/><path d="M450.65,902.53q-9.25.35-18.53.74c-.17.42-.32.84-.49,1.26-1.69,4.45-3.49,8.89-5.19,13.53l.38.33h1a123.8,123.8,0,0,0,11.93-7.48Q445.35,906.92,450.65,902.53Z" transform="translate(-230.02 -336.76)"/><path d="M499.8,586.89c-2.74-4.18-5.34-8.4-8.35-12.37-1.47-2-2.88-4-4.4-6l-4.64-5.77-2.35-2.85-2.44-2.78c-1.65-1.83-3.28-3.66-4.94-5.46-13.53-14.21-28.56-26.75-45.5-36.19l-.72.69c4.27,8.69,8.59,17,12.52,25.4q2.4,5.1,4.69,10.16,30.27,22,61,43.29c-.33-.58-.66-1.16-1-1.73C502.38,591.15,501.18,589,499.8,586.89Z" transform="translate(-230.02 -336.76)"/></svg>