<svg aria-hidden="true" style="position: absolute; width: 0; height: 0; overflow: hidden;" version="1.1" xmlns="http://www.w3.org/2000/svg" xmlns:xlink="http://www.w3.org/1999/xlink">
<defs>
<symbol id="icon-icon1" viewBox="0 0 32 32">
<title>icon1</title>
<path d="M8.099 21.732c0.129-0.342 0.255-0.678 0.373-1.012s0.231-0.666 0.337-0.995c0.026-0.083 0.052-0.165 0.078-0.246l0.074-0.247c0.027-0.081 0.049-0.164 0.072-0.246s0.050-0.162 0.070-0.245 0.044-0.163 0.067-0.245 0.041-0.163 0.062-0.245c0.046-0.161 0.078-0.326 0.12-0.487 0.070-0.326 0.143-0.648 0.194-0.972 0.061-0.323 0.099-0.647 0.14-0.969 0.009-0.081 0.014-0.162 0.022-0.243 0.003-0.039 0.008-0.081 0.012-0.121l0.006-0.060 0.004-0.061 0.015-0.243 0.008-0.121 0.004-0.121c0.005-0.134 0.008-0.291 0.008-0.449 0-0.528-0.032-1.048-0.094-1.56l0.006 0.061c-0.091-0.745-0.224-1.407-0.402-2.050l0.023 0.098c-0.219-0.784-0.449-1.432-0.715-2.060l0.042 0.111c-0.081-0.193-0.166-0.386-0.253-0.58q-0.545-0.395-1.085-0.794-1.73-1.285-3.417-2.631 0.549 0.645 1.033 1.346c0.041 0.057 0.078 0.118 0.118 0.176l0.116 0.177 0.115 0.178c0.039 0.060 0.078 0.118 0.113 0.179 0.072 0.122 0.145 0.243 0.217 0.366l0.107 0.183 0.101 0.188c0.068 0.125 0.134 0.251 0.2 0.377s0.125 0.256 0.187 0.384c0.126 0.256 0.235 0.52 0.347 0.784 0.186 0.433 0.376 0.977 0.532 1.534l0.024 0.1 0.057 0.209 0.028 0.105 0.025 0.106 0.097 0.425c0.017 0.071 0.029 0.143 0.042 0.214l0.039 0.215 0.037 0.215c0.013 0.072 0.020 0.145 0.030 0.217 0.159 1.157 0.157 2.355-0.067 3.532l-0.047 0.219c-0.016 0.073-0.028 0.147-0.049 0.219-0.039 0.145-0.076 0.291-0.118 0.435-0.104 0.351-0.207 0.633-0.324 0.909l0.021-0.057-0.086 0.209c-0.031 0.069-0.065 0.137-0.098 0.205l-0.1 0.203-0.050 0.102-0.054 0.1-0.113 0.196c-0.039 0.065-0.074 0.131-0.118 0.196-0.084 0.126-0.168 0.252-0.254 0.376-0.359 0.498-0.759 0.931-1.205 1.312l-0.010 0.008c-0.422 0.361-0.895 0.687-1.4 0.961l-0.043 0.021c-0.688 0.371-1.484 0.667-2.325 0.846l-0.059 0.011q0.533-0.054 1.063-0.102c0.313-0.029 0.627-0.054 0.94-0.078s0.625-0.050 0.936-0.071q1.87-0.135 3.723-0.214l0.318-0.013c0.027-0.070 0.054-0.14 0.080-0.21z"></path>
<path d="M1.677 2.546c0.171 0.091 0.341 0.185 0.509 0.278q1.019 0.56 2.014 1.149 1.996 1.176 3.935 2.43t3.84 2.57q0.475 0.33 0.924 0.694t0.874 0.766c0.283 0.268 0.556 0.549 0.816 0.85 0.13 0.15 0.257 0.305 0.379 0.467 0.11 0.142 0.223 0.303 0.326 0.469l0.014 0.024c0.354-0.416 0.728-0.79 1.13-1.133l0.014-0.011c0.398-0.342 0.839-0.663 1.304-0.947l0.044-0.025c0.237-0.147 0.485-0.279 0.735-0.406s0.509-0.241 0.772-0.343 0.531-0.196 0.803-0.279 0.549-0.151 0.83-0.207 0.565-0.099 0.851-0.133l0.323-0.029 0.325-0.018 0.217-0.004c0.030-0 0.065-0.001 0.1-0.001 0.581 0 1.148 0.057 1.697 0.166l-0.055-0.009c0.641 0.126 1.207 0.304 1.744 0.536l-0.055-0.021c0.274 0.114 0.538 0.247 0.798 0.388s0.509 0.301 0.754 0.467c0.641 0.449 1.199 0.947 1.693 1.503l0.008 0.010q-0.027-0.609-0.042-1.211c-0.011-0.418-0.019-0.836-0.018-1.251 0.003-0.83 0.039-1.652 0.118-2.476 0.090-0.959 0.219-1.809 0.392-2.642l-0.027 0.154c0.085-0.419 0.183-0.841 0.3-1.266 0.028-0.107 0.061-0.214 0.092-0.321s0.064-0.215 0.098-0.323c0.065-0.206 0.135-0.413 0.217-0.622-0.306 0.107-0.612 0.196-0.919 0.281-0.157 0.042-0.316 0.086-0.475 0.127s-0.317 0.078-0.475 0.118c-0.633 0.15-1.266 0.28-1.899 0.395s-1.266 0.215-1.899 0.302-1.266 0.161-1.899 0.224q-1.899 0.188-3.799 0.248c-1.266 0.043-2.532 0.041-3.799 0.022-2.532-0.042-5.065-0.177-7.597-0.44-0.633-0.066-1.266-0.138-1.899-0.222s-1.266-0.174-1.899-0.277-1.266-0.216-1.899-0.344c-0.317-0.064-0.633-0.131-0.95-0.205-0.255-0.059-0.509-0.121-0.765-0.188 0.291 0.143 0.579 0.292 0.865 0.443 0.172 0.089 0.342 0.182 0.513 0.274z"></path>
<path d="M29.757 22.39c0.016-0.018 0.031-0.036 0.047-0.054 0.031-0.034 0.061-0.070 0.089-0.108l0.003-0.004 0.044-0.058 0.041-0.062c0.029-0.039 0.053-0.086 0.078-0.129 0.086-0.146 0.165-0.316 0.228-0.494l0.007-0.022c-0.078-0.563-0.151-1.113-0.22-1.654-0.121-0.954-0.229-1.881-0.324-2.782q-0.094-0.899-0.171-1.771c-0.278-0.601-0.571-1.111-0.9-1.594l0.024 0.038c-0.556-0.823-1.228-1.558-2.006-2.151-0.741-0.571-1.613-1.016-2.56-1.285l-0.054-0.013c-0.424-0.122-0.923-0.214-1.436-0.257l-0.029-0.002c-0.22-0.020-0.475-0.031-0.734-0.031-0.274 0-0.545 0.013-0.813 0.038l0.034-0.003c-0.254 0.019-0.506 0.056-0.76 0.095l-0.284 0.052-0.094 0.020-0.189 0.039c-0.063 0.014-0.125 0.031-0.188 0.046-0.126 0.029-0.25 0.065-0.375 0.1s-0.248 0.076-0.373 0.114l-0.185 0.063c-0.062 0.021-0.124 0.042-0.185 0.065l-0.184 0.068c-0.062 0.022-0.122 0.049-0.183 0.072-0.975 0.392-1.902 0.929-2.782 1.565v0l-0.003 0.006-0.022-0.004c-0.241-0.046-0.442-0.097-0.639-0.159l0.039 0.011c-0.196-0.057-0.384-0.122-0.571-0.191-0.373-0.138-0.733-0.294-1.084-0.464s-0.692-0.353-1.024-0.549-0.657-0.404-0.975-0.622l-0.284-0.199q0.054 0.093 0.107 0.188c0.349 0.635 0.641 1.371 0.838 2.145l0.014 0.065c0.18 0.699 0.283 1.501 0.283 2.328 0 0.017-0 0.034-0 0.051v-0.003 0.15c0 0.050-0.004 0.1-0.006 0.15l-0.015 0.3c-0.011 0.199-0.035 0.398-0.056 0.597-0.061 0.456-0.14 0.853-0.242 1.241l0.015-0.069c-0.117 0.453-0.242 0.829-0.389 1.194l0.023-0.066c-0.169 0.427-0.336 0.778-0.522 1.116l0.026-0.051c-0.391 0.719-0.835 1.34-1.343 1.9l0.007-0.008c-0.259 0.286-0.529 0.548-0.816 0.791l-0.012 0.010-0.028 0.023q1.33-0.049 2.657-0.076c1.232-0.026 2.461-0.050 3.692-0.061s2.464-0.012 3.706 0.006 2.495 0.051 3.758 0.094l0.949 0.033 0.953 0.036c0.636 0.023 1.275 0.051 1.934 0.098s1.332 0.105 2.025 0.181c0.347 0.039 0.701 0.082 1.058 0.129l0.112 0.015c0.078-0.060 0.148-0.12 0.213-0.185l-0 0z"></path>
<path d="M29.237 22.794l0.004-0.003h-7.034c0.925 0.146 1.842 0.288 2.747 0.385 0.261 0.029 0.52 0.051 0.779 0.071s0.515 0.031 0.769 0.036 0.506 0.002 0.752-0.011q0.26-0.020 0.515-0.045c0.070-0.009 0.14-0.018 0.209-0.028 0.466-0.075 0.906-0.201 1.258-0.405z"></path>
<path d="M17.649 23.443c-0.099-0.005-0.216-0.009-0.333-0.009-0.146 0-0.291 0.005-0.434 0.014l0.020-0.001c-0.259 0.016-0.5 0.054-0.733 0.113l0.027-0.006q1.303 0.008 2.599-0.002-0.19-0.026-0.379-0.047c-0.257-0.032-0.513-0.052-0.766-0.062z"></path>
<path d="M15.047 23.008c0.099-0.074 0.212-0.146 0.33-0.21l0.014-0.007h-7.641l-0.024 0.013-0.014-0.013h-7.597c3.23-1.066 4.593-2.849 5.118-3.679 2.643-4.177 1.112-11.167-4.489-16.75q-0.323-0.289-0.639-0.588l0.011-0.016 0.011-0.016 0.033 0.016h30.345v11.551c0.366 0.587 0.703 1.266 0.975 1.977l0.028 0.083c0.065-0.86 0.118-1.734 0.153-2.616q0.028-0.681 0.045-1.368c0.011-0.458 0.019-0.917 0.017-1.378-0.003-0.923-0.039-1.853-0.118-2.782s-0.196-1.856-0.366-2.772c-0.085-0.458-0.183-0.912-0.3-1.362-0.028-0.112-0.061-0.225-0.091-0.337s-0.064-0.223-0.098-0.335c-0.069-0.223-0.141-0.444-0.229-0.663l-0.009-0.024-0.010 0.004c-0.317-0.112-0.633-0.202-0.95-0.291-0.157-0.042-0.316-0.086-0.475-0.127s-0.317-0.078-0.475-0.118c-0.633-0.15-1.266-0.28-1.899-0.396s-1.266-0.214-1.899-0.301-1.266-0.161-1.899-0.225q-1.899-0.187-3.799-0.248c-1.266-0.044-2.532-0.041-3.799-0.022-2.532 0.042-5.065 0.177-7.597 0.44-0.633 0.065-1.266 0.138-1.899 0.222s-1.266 0.176-1.898 0.277-1.267 0.216-1.899 0.344c-0.317 0.064-0.633 0.131-0.95 0.205s-0.633 0.149-0.949 0.238l-0.051 0.014 0.037 0.020c0.157 0.23 0.317 0.449 0.475 0.67l0.466 0.666 0.226 0.334c0.076 0.111 0.153 0.22 0.225 0.333s0.146 0.224 0.219 0.335l0.11 0.167 0.105 0.169c0.486 0.748 1 1.645 1.468 2.57l0.079 0.172c0.031 0.057 0.058 0.118 0.085 0.175l0.082 0.176c0.054 0.118 0.113 0.232 0.165 0.35s0.102 0.235 0.155 0.353l0.078 0.176 0.072 0.179c0.047 0.118 0.097 0.235 0.145 0.356s0.089 0.24 0.134 0.359c0.095 0.237 0.169 0.48 0.254 0.72l0.031 0.090 0.082 0.273 0.056 0.181 0.028 0.091 0.024 0.091c0.065 0.244 0.134 0.486 0.188 0.731 0.062 0.244 0.105 0.489 0.157 0.734 0.014 0.061 0.022 0.123 0.032 0.184l0.029 0.184 0.030 0.184c0.010 0.062 0.015 0.123 0.023 0.184 0.129 0.982 0.15 1.967 0.029 2.923l-0.024 0.179c-0.009 0.060-0.013 0.12-0.026 0.179-0.022 0.118-0.045 0.235-0.065 0.353-0.006 0.035-0.012 0.065-0.020 0.094l0.001-0.006-0.021 0.087-0.042 0.174c-0.025 0.118-0.062 0.23-0.095 0.345l-0.050 0.172c-0.019 0.057-0.039 0.112-0.060 0.169l-0.061 0.172-0.029 0.085-0.035 0.082c-0.047 0.109-0.090 0.221-0.138 0.33s-0.106 0.213-0.157 0.322c-0.242 0.462-0.504 0.86-0.801 1.229l0.011-0.014c-0.324 0.401-0.663 0.76-1.029 1.090l-0.008 0.007c-0.368 0.329-0.769 0.648-1.188 0.942l-0.042 0.028c-0.11 0.074-0.22 0.15-0.33 0.227l-0.341 0.218c-0.057 0.037-0.114 0.074-0.171 0.11s-0.118 0.068-0.176 0.103c-0.118 0.070-0.235 0.141-0.353 0.216v0l-0.108 0.024 0.114 0.014c0.633 0.078 1.27 0.138 1.909 0.196 0.32 0.029 0.639 0.054 0.96 0.078s0.642 0.049 0.963 0.071q1.929 0.134 3.876 0.214t3.895 0.118q1.404 0.028 2.812 0.048c0.147-0.205 0.318-0.38 0.512-0.526l0.006-0.004z"></path>
<path d="M30.575 19.289c-0.009-0.29-0.034-0.581-0.072-0.872v2.185c0.049-0.311 0.077-0.669 0.077-1.034 0-0.098-0.002-0.196-0.006-0.293l0 0.014z"></path>
<path d="M32.288 19.244c-0.016-0.627-0.082-1.228-0.194-1.812l0.011 0.069c-0.122-0.656-0.273-1.221-0.462-1.768l0.026 0.086q-0.075-0.225-0.159-0.446c-0.069 0.909-0.153 1.803-0.251 2.674-0.095 0.848-0.203 1.676-0.324 2.474s-0.252 1.572-0.417 2.285c-0.25 0.067-0.517 0.118-0.79 0.167s-0.553 0.091-0.839 0.129c-0.364 0.049-0.738 0.090-1.118 0.125q-0.254 0.031-0.515 0.045l-0.141 0.011c-0.607 0.047-1.234 0.074-1.864 0.097l-0.946 0.036-0.95 0.033c-1.269 0.043-2.547 0.076-3.84 0.094-0.239 0.004-0.479 0.006-0.719 0.007 0.908 0.123 1.827 0.31 2.752 0.5 1.058 0.212 2.123 0.437 3.221 0.597 0.549 0.078 1.107 0.144 1.678 0.174 0.179 0.011 0.387 0.018 0.597 0.018 0.408 0 0.81-0.025 1.205-0.072l-0.048 0.005c0.348-0.045 0.656-0.11 0.955-0.196l-0.046 0.011c0.347-0.097 0.648-0.22 0.931-0.373l-0.024 0.012c0.317-0.171 0.591-0.371 0.834-0.602l-0.002 0.002 0.094-0.090c0.030-0.031 0.059-0.064 0.088-0.096 0.058-0.065 0.118-0.129 0.169-0.196 0.026-0.034 0.054-0.068 0.078-0.102l0.073-0.105c0.051-0.069 0.093-0.141 0.137-0.213 0.154-0.253 0.293-0.545 0.401-0.851l0.010-0.033c0.091-0.248 0.175-0.551 0.236-0.861l0.007-0.040c0.093-0.47 0.145-1.010 0.145-1.563 0-0.081-0.001-0.163-0.003-0.243l0 0.012z"></path>
<path d="M14.53 23.537c-0.047 0.065-0.094 0.139-0.136 0.217l-0.006 0.012c-0.148 0.268-0.251 0.582-0.288 0.915l-0.001 0.011c-0.013 0.117-0.021 0.253-0.021 0.39 0 0.184 0.014 0.364 0.040 0.541l-0.002-0.020c0.050 0.325 0.118 0.61 0.207 0.886l-0.011-0.040c0.346 1.087 0.901 2.043 1.495 2.957 0.659 0.979 1.306 1.825 1.998 2.63l-0.031-0.037 0.031-0.023q-0.436-0.683-0.852-1.377c-0.274-0.464-0.54-0.931-0.787-1.406s-0.478-0.956-0.679-1.445c-0.183-0.416-0.349-0.912-0.47-1.425l-0.012-0.061c-0.050-0.213-0.089-0.466-0.108-0.725l-0.001-0.017c-0.004-0.055-0.006-0.119-0.006-0.184 0-0.184 0.018-0.363 0.051-0.537l-0.003 0.018c0.088-0.443 0.318-0.801 0.664-1.019 0.171-0.106 0.37-0.191 0.581-0.243l0.014-0.003c-0.191 0-0.382-0.002-0.574-0.004q-0.546-0.005-1.093-0.013z"></path>
<path d="M29.343 11.745l0.002 0.050c0.050 1.131 0.129 2.278 0.233 3.454 0.14 0.29 0.291 0.66 0.422 1.040l0.024 0.081c0.207 0.586 0.375 1.278 0.473 1.992l0.006 0.056v-5.108q-0.185-0.302-0.39-0.594c-0.257-0.363-0.51-0.68-0.78-0.981l0.009 0.010z"></path>
<path d="M1.401 2.944q0.219 0.192 0.44 0.379 0.882 0.756 1.785 1.48l0.245 0.196q-0.539-0.636-1.136-1.215l-0.149-0.146-0.154-0.14q-0.154-0.14-0.309-0.278c-0.102-0.094-0.21-0.181-0.317-0.269l-0.321-0.262c-0.053-0.044-0.109-0.085-0.164-0.127l-0.167-0.123c-0.112-0.082-0.222-0.164-0.334-0.245q-0.29-0.198-0.588-0.386l0.066 0.018-0.141-0.070h-0.044q0.322 0.299 0.627 0.604l0.222 0.196c0.147 0.133 0.292 0.261 0.44 0.388z"></path>
<path d="M30.293 21.459c0.060 0.431 0.125 0.869 0.196 1.319-0.344-0.060-0.673-0.107-0.997-0.152-0.073 0.055-0.155 0.11-0.24 0.16l-0.011 0.006h1.262v-2.189c-0.006 0.039-0.013 0.081-0.020 0.121-0.050 0.282-0.116 0.529-0.2 0.767l0.010-0.033z"></path>
<path d="M20.167 22.492q-0.408-0.054-0.823-0.095t-0.834-0.065c-0.28-0.016-0.564-0.021-0.85-0.016-0.31 0.004-0.611 0.025-0.907 0.064l0.038-0.004c-0.333 0.041-0.633 0.11-0.92 0.206l0.033-0.010c-0.201 0.067-0.371 0.141-0.534 0.229l0.018-0.009h6.818l-0.42-0.066c-0.536-0.083-1.075-0.163-1.62-0.233z"></path>
<path d="M8.646 22.17q-0.362 0.014-0.726 0.029c-0.007 0.016-0.013 0.033-0.019 0.049-0.066 0.174-0.137 0.348-0.203 0.53l0.015 0.013h0.039c0.183-0.101 0.335-0.198 0.482-0.303l-0.015 0.010q0.219-0.156 0.427-0.328z"></path>
<path d="M10.572 9.802c-0.107-0.164-0.209-0.329-0.327-0.485-0.058-0.078-0.113-0.157-0.172-0.235l-0.182-0.226-0.092-0.112-0.096-0.109c-0.065-0.072-0.129-0.143-0.194-0.214-0.53-0.557-1.119-1.048-1.783-1.418l-0.028 0.027c0.167 0.341 0.337 0.666 0.491 0.995q0.094 0.2 0.184 0.398 1.186 0.862 2.39 1.696c-0.013-0.023-0.026-0.045-0.039-0.068-0.051-0.083-0.098-0.168-0.152-0.25z"></path>
</symbol>
<symbol id="icon-icon2" viewBox="0 0 28 32">
<title>icon2</title>
<path d="M16.728 9.554l2.472-9.45-0.398-0.104-2.498 9.554h-6.705l-3.883-9.353-0.38 0.158 3.816 9.195h-9.153v22.445h27.789v-22.445zM3.772 25.3c-0 0.749-0.608 1.357-1.357 1.357-0.196 0-0.382-0.042-0.55-0.116l0.009 0.003 1.435-2.265c0.285 0.25 0.464 0.614 0.464 1.020 0 0 0 0.001 0 0.001v-0zM2.416 23.944c0.001 0 0.002 0 0.002 0 0.238 0 0.462 0.062 0.656 0.17l-0.007-0.003-1.45 2.287c-0.341-0.249-0.559-0.648-0.559-1.097 0-0.749 0.607-1.356 1.356-1.356h0zM2.416 30.439c-0.908-0-1.644-0.736-1.644-1.644 0-0.382 0.13-0.733 0.348-1.012l-0.003 0.004 2.306 2.308c-0.274 0.215-0.625 0.345-1.005 0.345-0.001 0-0.002 0-0.003 0h0zM3.714 29.803l-2.307-2.307c0.275-0.215 0.626-0.345 1.008-0.345 0.908 0 1.644 0.736 1.644 1.644 0 0.381-0.13 0.733-0.348 1.012l0.003-0.004zM13.895 27.887c-3.927 0-7.111-3.183-7.111-7.111s3.184-7.111 7.111-7.111c3.927 0 7.111 3.183 7.111 7.111v0c0 0 0 0 0 0 0 3.927-3.183 7.111-7.111 7.111h-0z"></path>
</symbol>
<symbol id="icon-icon3" viewBox="0 0 32 32">
<title>icon3</title>
<path d="M0 0v32h32v-32zM29.539 29.3l-27.156-27.156h27.158z"></path>
<path d="M11.832 5.797c9.449 3.573 11.595 17.39 11.595 17.39v-21.042z"></path>
</symbol>
<symbol id="icon-icon4" viewBox="0 0 53 32">
<title>icon4</title>
<path d="M0 0v32.001h52.723v-32.001zM49.289 27.073c0 0.349-0.283 0.631-0.631 0.631v0h-44.375c-0.349 0-0.631-0.283-0.631-0.631v0-22.039c0-0.349 0.283-0.631 0.631-0.631v0h44.375c0.349 0 0.631 0.283 0.631 0.631v0z"></path>
<path d="M26.363 27.705l-1.45-18.041c-21.262-4.63 1.45 18.041 1.45 18.041z"></path>
<path d="M38.121 4.403l3.956 8.032c1.917-4.398 1.769-8.032-3.956-8.032z"></path>
<path d="M31.355 27.705s10.094-9.772 17.933-0.631l-7.212-14.639c-2.936 6.739-10.721 15.271-10.721 15.271z"></path>
</symbol>
<symbol id="icon-icon5" viewBox="0 0 50 32">
<title>icon5</title>
<path d="M16 14.797l-10.229 2.888s8.887 2.865 18.163 2.875c-0.842-1.983-2.942-4.295-7.934-5.763z"></path>
<path d="M49.578 0h-48.871c-0.391 0-0.707 0.317-0.707 0.707v0 30.585c0 0.391 0.317 0.707 0.707 0.707v0h48.871c0.391 0 0.707-0.317 0.707-0.707v0-30.585c0-0.391-0.317-0.707-0.707-0.707v0zM24.317 24.352l-18.547-4.238v-8.476l18.547-4.238 13.904 3.177c-3.284 2.85-7.248 6.825-10.101 9.772 6.17-0.657 11.939-2.986 14.741-8.712v8.476z"></path>
<path d="M23.934 20.559c0.884 2.078 0.383 3.793 0.383 3.793s1.558-1.683 3.803-4.002c-1.214 0.133-2.621 0.209-4.047 0.209-0.049 0-0.098-0-0.147-0l0.008 0z"></path>
</symbol>
</defs>
</svg>
