<svg id="Layer_1" data-name="Layer 1" xmlns="http://www.w3.org/2000/svg" viewBox="0 0 853.06 542.86"><title>icon5</title><path d="M551.31,734.71l-173.53,49s150.77,48.61,308.13,48.77C671.62,798.84,636,759.62,551.31,734.71Z" transform="translate(-279.88 -483.69)"/><path d="M1120.94,483.69H291.88a12,12,0,0,0-12,12v518.86a12,12,0,0,0,12,12h829.06a12,12,0,0,0,12-12V495.69A12,12,0,0,0,1120.94,483.69ZM692.41,896.8,377.78,824.91V681.12l314.63-71.89,235.87,53.9c-55.71,48.35-122.95,115.78-171.36,165.78C861.59,817.77,959.46,778.26,1007,681.12V824.91Z" transform="translate(-279.88 -483.69)"/><path d="M685.91,832.46c15,35.25,6.5,64.34,6.5,64.34s26.43-28.55,64.51-67.89A664.82,664.82,0,0,1,685.91,832.46Z" transform="translate(-279.88 -483.69)"/></svg>