<svg id="Layer_1" data-name="Layer 1" xmlns="http://www.w3.org/2000/svg" viewBox="0 0 1002.04 608.16"><title>icon4</title><path d="M202.33,489.82V1098h1002V489.82Zm936.73,514.53a12,12,0,0,1-12,12H283.71a12,12,0,0,1-12-12V585.49a12,12,0,0,1,12-12h843.35a12,12,0,0,1,12,12Z" transform="translate(-202.33 -489.82)"/><path d="M703.35,1016.35,675.8,673.49C271.71,585.49,703.35,1016.35,703.35,1016.35Z" transform="translate(-202.33 -489.82)"/><path d="M926.82,573.49,1002,726.13C1038.43,642.55,1035.62,573.49,926.82,573.49Z" transform="translate(-202.33 -489.82)"/><path d="M798.24,1016.35s191.84-185.72,340.82-12L1002,726.13C946.2,854.2,798.24,1016.35,798.24,1016.35Z" transform="translate(-202.33 -489.82)"/></svg>